# xmcd
#
# Track frame offsets:
#	150
#	19648
#	43745
#	68903
#	81718
#	105224
#	125309
#	140177
#	155522
#	175430
#	200610
#	218822
#	237188
#	257054
#	274535
#	290111
#
# Disc length: 4363 seconds
#
# Revision: 0
# Processed by: cddbd v1.4PL0 Copyright (c) Steve Scherf et al.
# Submitted via: EasyCDDAExtractor 4.6.9.1
#
DISCID=f3110910
DTITLE=CARLOS SANTANA - THE VERY BEST cd 3
DYEAR=2002
DGENRE=
TTITLE0=Jingo (jin-go-lo-ba)
TTITLE1=Black magic woman/Gupsy woman
TTITLE2=Taboo
TTITLE3=Se a cabo
TTITLE4=Transcedance
TTITLE5=Gupsy woman
TTITLE6=I'm the one who loves you
TTITLE7=What does it take (to win your love)
TTITLE8=You know that I love you
TTITLE9=Aqua marine
TTITLE10=All I ever wanted
TTITLE11=Stand up
TTITLE12=Summer lady
TTITLE13=Lightnin'
TTITLE14=Tales of Kilimanjaro
TTITLE15=Dance sister dance (Baila mi hermana)
EXTD=
EXTT0=
EXTT1=
EXTT2=
EXTT3=
EXTT4=
EXTT5=
EXTT6=
EXTT7=
EXTT8=
EXTT9=
EXTT10=
EXTT11=
EXTT12=
EXTT13=
EXTT14=
EXTT15=
PLAYORDER=
